<svg xmlns="http://www.w3.org/2000/svg" width="128" height="128" viewBox="0 0 32 32" shape-rendering="crispEdges">
  <!-- 白い背景 -->
  <rect width="32" height="32" fill="#ffffff"/>
  <!-- 黒いドット部分（結合済みパス） -->
  <path fill="#000000" d="M4 0h2v2H4zM22 0h2v2H22zM2 2h2v4H2zM6 2h2v4H6zM20 2h2v4H20zM24 2h2v4H24zM0 6h2v4H0zM8 6h2v4H8zM18 6h2v4H18zM26 6h2v4H26zM10 10h8v2H10zM28 10h2v2H28zM4 12h2v2H4zM26 12h2v2H26zM30 12h2v14H30zM2 14h2v2H2zM28 14h2v2H28zM6 16h4v4H6zM24 16h4v4H24zM18 20h2v4H18zM12 22h2v2H12zM10 24h2v4H10zM16 24h2v4H16zM22 24h2v4H22zM28 26h2v2H28zM0 28h2v2H0zM12 28h4v2H12zM18 28h4v2H18zM26 28h2v2H26zM2 30h2v2H2zM24 30h2v2H24z"/>
</svg>
